<?xml version="1.0" encoding="UTF-8" standalone="no"?>
<!-- Created with Inkscape (http://www.inkscape.org/) -->

<svg
   width="512"
   height="512"
   viewBox="0 0 512 512"
   version="1.1"
   id="svg1"
   xml:space="preserve"
   inkscape:version="1.4 (86a8ad7, 2024-10-11)"
   sodipodi:docname="avatar.svg"
   xmlns:inkscape="http://www.inkscape.org/namespaces/inkscape"
   xmlns:sodipodi="http://sodipodi.sourceforge.net/DTD/sodipodi-0.dtd"
   xmlns="http://www.w3.org/2000/svg"
   xmlns:svg="http://www.w3.org/2000/svg"><sodipodi:namedview
     id="namedview1"
     pagecolor="#ffffff"
     bordercolor="#000000"
     borderopacity="0.25"
     inkscape:showpageshadow="2"
     inkscape:pageopacity="0.0"
     inkscape:pagecheckerboard="0"
     inkscape:deskcolor="#d1d1d1"
     inkscape:document-units="px"
     showguides="false"
     inkscape:zoom="1.0790651"
     inkscape:cx="291.91936"
     inkscape:cy="291.456"
     inkscape:window-width="1920"
     inkscape:window-height="1017"
     inkscape:window-x="-8"
     inkscape:window-y="-7"
     inkscape:window-maximized="1"
     inkscape:current-layer="layer1" /><defs
     id="defs1" /><g
     inkscape:label="Layer 1"
     inkscape:groupmode="layer"
     id="layer1"><circle
       style="display:inline;fill:#0c0623;fill-opacity:1;stroke-width:1.09656"
       id="path1"
       cx="-256"
       cy="-255.99998"
       r="256"
       inkscape:label="circle-outside"
       transform="matrix(0,-1,-1,0,0,0)" /><circle
       style="fill:#000000;fill-opacity:1;stroke-width:0.899522"
       id="path1-8"
       cx="256"
       cy="-256"
       inkscape:label="circle-inside"
       r="210"
       transform="rotate(90)" /><path
       style="font-size:85.3333px;text-align:center;text-anchor:middle;fill:#b49082"
       d="m 138.42452,79.714939 -6.5973,5.811107 -15.99439,-8.954775 -20.135833,17.736273 6.864473,16.996686 -6.284631,5.5357 L 72.215212,55.356521 80.469653,48.08575 Z M 109.24362,72.9359 80.950656,57.268 92.891071,87.339736 Z m 70.55389,-32.881084 q 1.5615,3.271442 1.54539,7.203557 0.0215,3.914168 -1.66457,7.442955 -1.85953,3.84244 -5.23689,7.116605 -3.33976,3.256216 -8.98018,5.948456 -6.05404,2.889671 -11.44325,4.076914 -5.35161,1.169295 -11.41172,1.33785 l -4.45117,-9.32549 0.52644,-0.251276 q 5.93625,1.506508 12.41682,0.767906 6.48057,-0.738602 11.36894,-3.071876 6.91891,-3.302481 9.51596,-7.727797 2.63466,-4.443263 0.57061,-8.767584 -1.77688,-3.722675 -4.46299,-4.610541 -2.6485,-0.905814 -6.83783,-0.106608 -3.17917,0.594064 -6.72155,1.684676 -3.50476,1.072663 -7.5488,2.079537 -8.19918,1.97444 -13.62182,-0.100407 -5.40299,-2.130399 -8.32856,-8.259653 -3.35632,-7.03172 0.44907,-14.342278 3.78745,-7.34816 12.92493,-11.709589 5.90363,-2.8178779 11.36805,-4.0410174 5.46441,-1.2231395 10.05201,-1.3813919 l 4.1999,8.7990513 -0.52644,0.251276 q -4.48851,-1.181798 -10.55887,-0.45432 -6.0507,0.671928 -11.5031,3.274426 -5.97885,2.853775 -8.44173,7.07654 -2.42528,4.204818 -0.55866,8.115507 1.66919,3.497059 4.42538,4.62849 2.75619,1.131431 7.80868,0.01257 2.65785,-0.62225 7.45395,-1.98809 4.79609,-1.365839 8.25643,-2.047939 7.03179,-1.32489 11.78782,0.514104 4.75603,1.838993 7.62775,7.855439 z m 63.60263,-14.25023 q 0.76949,4.560535 -0.36686,8.343997 -1.13636,3.783462 -3.67218,6.535386 -2.99368,3.293989 -6.94925,5.144564 -3.91448,1.843643 -10.2828,2.91816 l -21.69336,3.660293 -10.3223,-61.1769173 18.11888,-3.0571767 q 6.69701,-1.129976 10.10815,-1.198468 3.41115,-0.06849 6.71494,0.979778 3.66714,1.198239 5.65872,3.7355833 1.98464,2.4962581 2.63629,6.3583335 0.73483,4.3551063 -0.96388,7.8108975 -1.70565,3.4147054 -5.09142,5.8874847 l 0.0555,0.328687 q 6.41887,0.226875 10.70045,3.814521 4.27464,3.546561 5.34916,9.914877 z M 225.06691,0.5444212 q -0.37435,-2.2186391 -1.37039,-3.614035 -0.99605,-1.3953959 -2.79893,-2.0630768 -2.11821,-0.783498 -4.91256,-0.5655445 -2.80128,0.1768676 -6.86879,0.8631725 l -9.69627,1.63604 2.98092,17.6669406 10.51799,-1.774687 q 3.82099,-0.644711 6.01833,-1.395765 2.1904,-0.792139 3.91346,-2.3505381 1.72307,-1.5583988 2.17788,-3.6211516 0.48896,-2.110771 0.0384,-4.7813551 z m 9.92499,27.0169208 q -0.62391,-3.697732 -2.10065,-5.688111 -1.47673,-1.990379 -4.65033,-3.018359 -2.14543,-0.694394 -5.02889,-0.503662 -2.8493,0.142714 -6.87572,0.822087 l -12.77771,2.155968 3.84053,22.761593 10.76451,-1.816282 q 5.34117,-0.901208 8.66118,-2.010712 3.31307,-1.15059 5.24106,-2.997098 2.03045,-1.990563 2.75206,-4.2251 0.72162,-2.234538 0.17396,-5.480324 z m 105.62556,-32.9376648 -26.5656,58.3390908 -9.15292,-1.599697 -3.98044,-52.9763039 -21.4261,48.5358899 -8.9477,-1.563829 -5.49014,-63.941615 8.33203,1.456226 3.9661,53.058393 21.52253,-48.603633 8.24994,1.44188 3.79793,53.536579 21.73174,-49.0746452 z m 19.48523,78.5849248 -21.95941,-10.864342 2.80847,-5.676581 7.28246,3.60297 21.89497,-44.254928 -7.28245,-3.60297 2.80847,-5.6765818 21.9594,10.8643418 -2.80847,5.676582 -7.28245,-3.602971 -21.89498,44.254928 7.28246,3.602971 z m 55.15157,36.459288 q -5.38739,-1.50357 -11.12931,-4.07157 -5.6832,-2.57286 -9.97639,-6.207298 -5.53345,-4.684379 -8.85241,-10.114497 -3.31896,-5.430119 -3.97822,-11.229071 -0.66414,-5.857675 1.45863,-11.976498 2.14969,-6.150624 7.39942,-12.351902 9.61106,-11.353108 21.77163,-12.304482 12.21929,-0.956255 23.79501,8.843252 4.03878,3.419059 7.402,7.958571 3.42193,4.534632 6.32227,10.975159 l -6.32661,7.473335 -0.57242,-0.484591 q -0.33973,-1.597808 -1.16606,-4.426445 -0.82634,-2.828637 -1.93906,-5.190013 -1.35972,-2.843443 -3.61981,-5.848583 -2.20137,-3.010019 -5.73133,-5.998331 -7.95035,-6.73043 -16.92776,-5.540973 -8.91868,1.184578 -16.29523,9.898168 -7.78038,9.190611 -7.28096,18.402742 0.52634,9.180329 8.85831,16.233821 3.05294,2.584485 6.58559,4.537822 3.56445,1.980254 6.6618,2.964584 l 9.82643,-11.607524 -12.68877,-10.741767 4.68438,-5.533448 18.92185,16.018425 z"
       id="text2"
       inkscape:label="text-top"
       transform="translate(0,30.324861)"
       aria-label="ASBWIG" /><path
       d="m 48.012018,405.62593 -1.813686,-2.75317 4.160028,-5.47224 -5.535611,-8.40303 -6.669963,1.66217 -1.72773,-2.62268 24.087598,-5.72684 2.269257,3.44472 z m 4.040198,-10.48261 7.294752,-9.68901 -11.790287,2.86481 z m 7.003502,24.57325 -1.812121,-2.31195 7.821287,-6.13036 q 0.946917,-0.7422 1.684107,-1.49869 0.749488,-0.76613 0.985463,-1.42755 0.275526,-0.71228 0.06845,-1.48304 -0.19478,-0.78041 -0.917701,-1.70273 -0.742198,-0.94692 -2.019179,-1.61364 -1.27698,-0.66672 -2.744738,-1.04494 l -10.256216,8.03888 -1.81212,-2.31195 13.736442,-10.7667 1.81212,2.31195 -1.524904,1.19523 q 1.745952,0.37855 3.156215,1.13933 1.410263,0.76078 2.364518,1.97824 1.744648,2.22587 1.319907,4.44479 -0.424742,2.21892 -2.945754,4.1949 z m 20.158969,9.37258 q -3.143484,2.88341 -6.441462,2.94016 -3.297979,0.0567 -5.780037,-2.64919 -2.503181,-2.72896 -2.162548,-6.00979 0.351195,-3.26931 3.494679,-6.15272 3.143485,-2.88342 6.430901,-2.95168 3.309493,-0.0673 5.812675,2.66166 2.482058,2.70593 2.12991,5.99732 -0.340633,3.28083 -3.484118,6.16424 z m -2.049017,-2.23383 q 2.498667,-2.29194 2.809933,-4.37969 0.322782,-2.0983 -1.272072,-3.83701 -1.615978,-1.76173 -3.734291,-1.6209 -2.096236,0.14177 -4.594903,2.43372 -2.418065,2.21801 -2.77539,4.348 -0.345811,2.11943 1.259605,3.86965 1.584293,1.72719 3.71412,1.5758 2.151904,-0.15044 4.592998,-2.38957 z m 5.546592,17.45106 q -0.748487,-0.41643 -1.555427,-0.99747 -0.795679,-0.57022 -1.347478,-1.10098 -1.925663,-1.85222 -1.93139,-3.85227 -0.0057,-2.00006 2.193113,-4.28608 l 6.434044,-6.68914 -1.430171,-1.37563 1.711412,-1.77927 1.430171,1.37563 3.476984,-3.61484 2.117103,2.03636 -3.476983,3.61484 4.369341,4.20271 -1.711412,1.77927 -4.369342,-4.20271 -5.513347,5.73195 q -0.953192,0.99098 -1.449733,1.59737 -0.48571,0.59512 -0.681206,1.33931 -0.185522,0.68875 0.0366,1.31432 0.244215,0.62514 1.133849,1.48084 0.518015,0.49826 1.221887,0.89345 0.714703,0.38393 1.059935,0.52088 l 0.112612,0.10832 z m 13.639605,11.95005 -2.243347,-1.89639 6.41545,-7.5892 q 0.77671,-0.91881 1.34516,-1.80909 0.57853,-0.90221 0.67546,-1.59774 0.12535,-0.75336 -0.23375,-1.46611 -0.349,-0.72468 -1.24396,-1.48122 -0.91881,-0.77671 -2.304473,-1.17059 -1.38566,-0.39389 -2.899622,-0.46657 l -8.412712,9.95187 -2.243347,-1.89639 15.695664,-18.56728 2.24334,1.89639 -5.679082,6.71811 q 1.786442,0.0166 3.321692,0.47554 1.53525,0.45896 2.71658,1.45759 2.15982,1.82578 2.19393,4.08472 0.0341,2.25895 -2.03377,4.70515 z m 21.253383,5.18292 -10.42848,-7.52397 q -0.94164,1.30514 -1.25278,2.56424 -0.30199,1.24642 -0.0657,2.36099 0.22008,1.08362 0.90034,2.03682 0.69292,0.96235 1.78265,1.74857 1.44453,1.0422 3.31313,1.52334 1.89041,0.47761 2.91355,0.36803 l 0.12672,0.0914 -1.87414,2.59762 q -1.56946,-0.36165 -3.07076,-0.92459 -1.50129,-0.56295 -2.88247,-1.55944 -3.52262,-2.54152 -4.12802,-5.86838 -0.59627,-3.33954 1.9361,-6.8495 2.50495,-3.47194 5.86486,-4.14984 3.37258,-0.66876 6.46438,1.56192 2.86371,2.06612 3.20285,4.85408 0.35181,2.79709 -1.86973,5.87622 z m -1.00238,-3.49768 q 1.34036,-1.88449 1.1432,-3.58739 -0.18449,-1.69375 -2.08519,-3.06507 -1.91337,-1.38046 -3.86743,-1.0755 -1.9414,0.31409 -3.30022,1.877 z m 16.64579,6.44144 -0.13229,-0.0831 q -0.47249,-0.48149 -0.9684,-0.86698 -0.47437,-0.3904 -1.18875,-0.83938 -1.15095,-0.72334 -2.54678,-0.88085 -1.38751,-0.17074 -2.88687,0.0127 l -6.59322,10.49081 -2.4871,-1.56308 9.28703,-14.77709 2.48711,1.56308 -1.37186,2.18283 q 2.22997,-0.25944 3.66208,-0.0422 1.45366,0.21232 2.63107,0.95229 0.64823,0.40739 0.91433,0.63 0.27442,0.20937 0.7983,0.6678 z m 22.99125,20.33227 q -0.58853,1.22537 -1.741,2.14522 -1.13839,0.92662 -2.56569,1.2638 -1.55972,0.36025 -3.31031,0.14348 -1.73651,-0.21001 -3.84922,-1.22471 -2.26765,-1.08911 -3.88164,-2.3843 -1.5999,-1.28842 -3.07406,-3.01912 l 1.67764,-3.49301 0.19719,0.0947 q 0.95569,2.08838 2.69524,3.80787 1.73954,1.71949 3.57056,2.5989 2.59159,1.2447 4.49499,0.96285 1.91749,-0.27509 2.69543,-1.89483 0.6697,-1.39439 0.29749,-2.38784 -0.35813,-0.98669 -1.57663,-2.02259 -0.92107,-0.78905 -2.07258,-1.56744 -1.13743,-0.77163 -2.38244,-1.71626 -2.50467,-1.93097 -3.17357,-4.00293 -0.64805,-2.07929 0.45459,-4.3751 1.26499,-2.63385 4.29538,-3.24111 3.03715,-0.62135 6.45974,1.02246 2.2113,1.06205 3.85346,2.37077 1.64216,1.30871 2.76708,2.61167 l -1.58294,3.29583 -0.19718,-0.0947 q -0.71015,-1.5891 -2.34999,-3.19137 -1.61899,-1.6096 -3.66128,-2.59047 -2.23947,-1.07559 -4.05216,-0.80217 -1.7986,0.28019 -2.50213,1.745 -0.62911,1.30988 -0.31157,2.38108 0.31754,1.07119 1.83238,2.28409 0.80672,0.63012 2.33342,1.71005 1.52671,1.07993 2.5396,1.93041 2.04042,1.74266 2.62148,3.56444 0.58107,1.82177 -0.50128,4.07533 z m 15.141,13.00712 -2.74349,-1.04984 3.55158,-9.28117 q 0.42999,-1.12366 0.6728,-2.15165 0.24839,-1.04259 0.11036,-1.73115 -0.13029,-0.75251 -0.70448,-1.30683 -0.5686,-0.56891 -1.66308,-0.98773 -1.12366,-0.42999 -2.56168,-0.34453 -1.43801,0.0855 -2.89115,0.51646 l -4.65727,12.17059 -2.74349,-1.04984 8.6891,-22.70676 2.74349,1.04983 -3.14393,8.21588 q 1.69183,-0.57387 3.29253,-0.64727 1.6007,-0.0734 3.04541,0.47945 2.64134,1.01075 3.419,3.13189 0.77765,2.12115 -0.36712,5.11272 z m 14.59321,-16.73747 -3.15584,-1.00663 0.92591,-2.90278 3.15584,1.00663 z m -6.37036,19.35444 -2.79858,-0.89268 5.3038,-16.62772 2.79858,0.89267 z m 14.34479,3.92964 q -0.8565,-0.007 -1.8431,-0.13156 -0.97152,-0.11994 -1.71002,-0.32194 -2.57721,-0.70492 -3.5393,-2.45838 -0.9621,-1.75346 -0.12526,-4.81295 l 2.44869,-8.95241 -1.91406,-0.52354 0.65133,-2.38128 1.91407,0.52355 1.32328,-4.83792 2.83342,0.77501 -1.32328,4.83791 5.8477,1.59948 -0.65134,2.38128 -5.8477,-1.59948 -2.09828,7.67134 q -0.36277,1.32628 -0.50861,2.09634 -0.14171,0.75498 0.0427,1.50199 0.16668,0.69355 0.66107,1.13655 0.51358,0.43206 1.70422,0.75773 0.69328,0.18963 1.50044,0.19982 0.81129,-0.005 1.17996,-0.0498 l 0.15071,0.0412 z m 12.29872,2.75575 q -0.85583,0.0344 -1.84732,-0.0412 -0.97623,-0.0723 -1.72373,-0.23788 -2.60861,-0.57797 -3.65535,-2.28225 -1.04675,-1.70429 -0.36061,-4.80106 l 2.0077,-9.0615 -1.93739,-0.42925 0.53404,-2.4103 1.93739,0.42926 1.08497,-4.89687 2.86795,0.63543 -1.08497,4.89687 5.91895,1.31143 -0.53403,2.4103 -5.91896,-1.31143 -1.7204,7.76482 q -0.29744,1.34244 -0.40542,2.11871 -0.1046,0.76102 0.11618,1.4981 0.20042,0.68457 0.71589,1.10285 0.5341,0.40641 1.73925,0.67343 0.70174,0.15548 1.50843,0.12616 0.81007,-0.0446 1.1761,-0.10751 l 0.15255,0.0338 z m 20.9291,-14.07268 -13.79172,22.00762 -3.10213,-0.49022 4.34669,-6.68471 -4.27533,-17.49111 3.14843,0.49754 3.27426,13.61547 7.35941,-11.93506 z m 30.32347,12.07617 q -0.0571,1.73344 -0.75679,3.03922 -0.69965,1.30578 -1.83673,2.12814 -1.34576,0.98746 -2.93745,1.37273 -1.57606,0.38578 -3.99662,0.306 l -8.24552,-0.27179 0.76647,-23.253 6.88688,0.22701 q 2.5455,0.0839 3.80426,0.313 1.25876,0.22909 2.39482,0.86061 1.25842,0.71372 1.80123,1.79469 0.54332,1.06535 0.49493,2.5333 -0.0546,1.65536 -0.93646,2.7988 -0.88138,1.12782 -2.31003,1.78424 l -0.004,0.12493 q 2.34213,0.56184 3.64827,2.19951 1.30664,1.62205 1.22686,4.04261 z m -4.8549,-10.6501 q 0.0278,-0.84329 -0.23426,-1.43036 -0.26205,-0.58708 -0.87487,-0.96685 -0.72008,-0.44584 -1.7633,-0.57403 -1.0427,-0.1438 -2.58874,-0.19476 l -3.68549,-0.12149 -0.22135,6.71511 3.99783,0.13177 q 1.45234,0.0479 2.31588,-0.0644 0.86405,-0.12785 1.61347,-0.57216 0.74942,-0.4443 1.07033,-1.16849 0.33704,-0.7393 0.3705,-1.75438 z m 1.63378,10.66899 q 0.0463,-1.40548 -0.34804,-2.24706 -0.39436,-0.84157 -1.48409,-1.45593 -0.73673,-0.41512 -1.81066,-0.55995 -1.05781,-0.15994 -2.58823,-0.21039 l -4.85673,-0.16009 -0.28518,8.65156 4.09153,0.13486 q 2.03015,0.0669 3.33301,-0.0934 1.30338,-0.17591 2.14958,-0.71082 0.89461,-0.58022 1.32637,-1.34766 0.43177,-0.76744 0.47244,-2.00115 z m 21.58988,-2.43393 q 0.20395,4.26075 -1.86301,6.83126 -2.06696,2.57052 -5.73463,2.74608 -3.69889,0.17706 -6.00193,-2.18428 -2.28743,-2.36208 -2.49138,-6.62283 -0.20395,-4.26075 1.84741,-6.83052 2.06621,-2.58612 5.7651,-2.76317 3.66768,-0.17557 5.97146,2.20138 2.30303,2.36133 2.50698,6.62208 z m -3.02778,0.14493 q -0.16211,-3.38674 -1.56716,-4.96199 -1.4058,-1.59086 -3.76248,-1.47805 -2.38789,0.1143 -3.6353,1.83216 -1.23256,1.7015 -1.07044,5.08825 0.15688,3.2775 1.56492,4.91517 1.40729,1.62207 3.77957,1.50852 2.34107,-0.11206 3.58774,-1.84553 1.26153,-1.74982 1.10315,-5.05853 z m 16.95916,6.90589 q -0.79898,0.30866 -1.76188,0.55687 -0.94736,0.2465 -1.70832,0.33085 -2.65561,0.29435 -4.19614,-0.9812 -1.54053,-1.27554 -1.88997,-4.42811 l -1.0225,-9.22475 -1.97229,0.21861 -0.27198,-2.45372 1.97229,-0.21862 -0.55256,-4.98509 2.91962,-0.32362 0.55256,4.98509 6.0256,-0.66789 0.27198,2.45372 -6.0256,0.6679 0.87618,7.90471 q 0.15149,1.36663 0.29968,2.13624 0.14646,0.75408 0.5932,1.38055 0.41051,0.58333 1.03335,0.81298 0.63665,0.2124 1.86352,0.0764 0.71437,-0.0792 1.46849,-0.36715 0.75239,-0.30348 1.07856,-0.48112 l 0.1553,-0.0172 z m 35.71027,-31.05645 -0.36887,24.03577 -3.38539,0.82464 -9.32232,-17.6064 -0.0748,19.89541 -3.30948,0.80615 -11.48756,-21.14768 3.08176,-0.75068 9.32972,17.63676 0.0978,-19.93317 3.0514,-0.74329 9.34373,17.82633 0.0989,-20.12644 z m 14.40214,4.2185 -0.14804,0.05 q -0.67175,0.0619 -1.28391,0.20255 -0.60235,0.12089 -1.40178,0.39077 -1.28796,0.4348 -2.29219,1.41697 -1.00922,0.96738 -1.81467,2.24526 l 3.96318,11.73971 -2.78318,0.93957 -5.58245,-16.53626 2.78319,-0.93957 0.82462,2.44269 q 1.20827,-1.89212 2.28171,-2.86468 1.08325,-0.99236 2.40082,-1.43716 0.72541,-0.24489 1.06609,-0.31042 0.33569,-0.0804 1.02206,-0.19662 z m 2.70561,-7.69335 -3.08905,1.19599 -1.10009,-2.84134 3.08905,-1.196 z m 7.18164,19.0683 -2.73935,1.06059 -6.30153,-16.27581 2.73935,-1.0606 z m 13.63595,-5.9394 q -0.67167,0.53151 -1.51779,1.05386 -0.8318,0.5161 -1.53361,0.82212 -2.44918,1.06792 -4.29845,0.30605 -1.84927,-0.76187 -3.11703,-3.66937 l -3.70962,-8.50767 -1.81898,0.79314 -0.98673,-2.26298 1.81898,-0.79314 -2.00469,-4.59757 2.69266,-1.17409 2.00469,4.59758 5.55719,-2.42312 0.98674,2.26298 -5.5572,2.42312 3.17878,7.29024 q 0.54957,1.26039 0.91912,1.95154 0.3633,0.67683 0.97559,1.14282 0.5649,0.43552 1.22782,0.47033 0.671,0.0143 1.80249,-0.47912 0.65884,-0.28727 1.29379,-0.78572 0.6287,-0.51278 0.88759,-0.77908 l 0.14323,-0.0625 z m 11.30536,-5.57138 q -0.64469,0.56394 -1.46406,1.12731 -0.80538,0.55643 -1.49128,0.89663 -2.39362,1.18721 -4.27816,0.51732 -1.88454,-0.6699 -3.29392,-3.51145 l -4.124,-8.3147 -1.77772,0.88173 -1.09696,-2.21165 1.77772,-0.88174 -2.22862,-4.49329 2.63158,-1.30524 2.22863,4.4933 5.43115,-2.6938 1.09696,2.21166 -5.43115,2.69379 3.53386,7.12488 q 0.61097,1.23181 1.01409,1.90393 0.39619,0.65812 1.03068,1.0934 0.58566,0.40717 1.24949,0.40931 0.67088,-0.0188 1.77671,-0.56729 0.6439,-0.31936 1.25353,-0.84847 0.6027,-0.54311 0.84816,-0.82183 l 0.13998,-0.0694 z m 11.6745,-16.0954 -11.14493,6.41514 q 0.80287,1.39481 1.82287,2.19589 1.0122,0.78754 2.12541,1.03017 1.07832,0.24468 2.22687,0.0163 1.16209,-0.23622 2.32669,-0.90658 1.54376,-0.88861 2.75031,-2.3944 1.21229,-1.52712 1.53287,-2.50491 l 0.13541,-0.0779 1.59794,2.77607 q -0.97468,1.28219 -2.10486,2.41951 -1.13018,1.13731 -2.60624,1.98695 -3.76463,2.16696 -7.04638,1.35168 -3.28954,-0.82882 -5.44871,-4.57991 -2.13579,-3.71046 -1.37302,-7.05212 0.77631,-3.34946 4.08051,-5.2514 3.06046,-1.76164 5.74148,-0.92508 2.69456,0.82875 4.58871,4.11942 z m -3.60061,-0.52357 q -1.16718,-1.9964 -2.80066,-2.51647 -1.61993,-0.52787 -3.65121,0.64136 -2.04481,1.17702 -2.56984,3.08378 -0.51148,1.89896 0.35493,3.78002 z m 23.61632,-2.80194 -2.42595,1.6564 -5.60356,-8.20695 q -0.67842,-0.9936 -1.38487,-1.77888 -0.71526,-0.79817 -1.35976,-1.07707 -0.69264,-0.3217 -1.47535,-0.16568 -0.79151,0.14311 -1.75931,0.80391 -0.99361,0.67842 -1.74274,1.90886 -0.74913,1.23045 -1.22291,2.6702 l 7.34806,10.76194 -2.42595,1.6564 -9.84148,-14.41377 2.42596,-1.6564 1.09252,1.6001 q 0.49237,-1.71733 1.34411,-3.0746 0.85174,-1.35726 2.12924,-2.22951 2.33563,-1.59473 4.52187,-1.0252 2.18624,0.56953 3.99241,3.21485 z m 19.7079,-15.93257 -6.97415,5.98092 -1.54609,-1.80284 2.31286,-1.98347 -12.05339,-14.05505 -2.31285,1.98347 -1.54609,-1.80284 6.97415,-5.98092 1.54609,1.80284 -2.31286,1.98347 12.05338,14.05505 2.31286,-1.98347 z m 14.1994,-13.54631 -2.09915,2.05487 -6.95157,-7.10138 q -0.84162,-0.85976 -1.67443,-1.50949 -0.84374,-0.66089 -1.52706,-0.82286 -0.73821,-0.19571 -1.4816,0.0947 -0.75432,0.27924 -1.59175,1.099 -0.85976,0.84162 -1.38233,2.18405 -0.52257,1.34243 -0.73745,2.84283 l 9.11574,9.31218 -2.09915,2.05487 -12.20897,-12.47208 2.09915,-2.05486 1.35534,1.38454 q 0.18468,-1.77695 0.78611,-3.26217 0.60144,-1.48523 1.70685,-2.56731 2.02099,-1.97836 4.27311,-1.79966 2.25213,0.17869 4.49281,2.46766 z m 22.14166,-29.03767 q -0.48587,2.04043 -1.36551,4.22903 -0.88231,2.16666 -2.18242,3.82774 -1.6757,2.14094 -3.66272,3.46279 -1.98703,1.32186 -4.15054,1.65237 -2.18545,0.33319 -4.50888,-0.37419 -2.33572,-0.71701 -4.73506,-2.59495 -4.39262,-3.43807 -4.92416,-7.98123 -0.53422,-4.5651 2.97127,-9.04385 1.22307,-1.56264 2.87572,-2.88826 1.64998,-1.34756 4.02165,-2.52708 l 2.8915,2.26315 -0.17335,0.22148 q -0.59384,0.1503 -1.64191,0.50067 -1.04806,0.35036 -1.91691,0.80131 -1.04593,0.55045 -2.1395,1.44062 -1.09624,0.86823 -2.16522,2.234 -2.40761,3.07607 -1.83267,6.42299 0.57226,3.32499 3.94363,5.96374 3.55594,2.7832 7.00075,2.46346 3.43251,-0.32938 5.95569,-3.55309 0.92453,-1.18121 1.60564,-2.5331 0.69074,-1.36419 1.01501,-2.53901 l -4.49106,-3.51511 -3.84255,4.9094 -2.14094,-1.6757 5.73012,-7.32104 z m 5.07096,-20.46011 q 3.5734,2.32946 4.44692,5.51015 0.87353,3.1807 -1.13168,6.2567 -2.02228,3.10219 -5.28499,3.58651 -3.25419,0.47124 -6.82758,-1.85822 -3.5734,-2.32946 -4.45546,-5.49706 -0.88662,-3.18923 1.13566,-6.29142 2.00521,-3.076 5.28101,-3.55179 3.26272,-0.48433 6.83612,1.84513 z m -1.65537,2.53934 q -2.84039,-1.85162 -4.94007,-1.63497 -2.11276,0.20812 -3.40121,2.18461 -1.30552,2.00267 -0.64334,4.01975 0.65763,1.99545 3.49802,3.84707 2.74877,1.79189 4.9008,1.60938 2.13894,-0.19106 3.43593,-2.18064 1.27992,-1.96341 0.60465,-3.98902 -0.67983,-2.04723 -3.45478,-3.85618 z"
       id="text4"
       style="font-size:32px;text-align:center;text-anchor:middle;fill:#b49082"
       inkscape:label="text-bottom"
       transform="translate(0,-15.238025)"
       aria-label="Another Shitty Bot Written In Go" /><g
       style="fill:#000000;opacity:0.33"
       id="g9"
       transform="matrix(1.3671875,0,0,1.3671875,80.999999,120.53296)"
       inkscape:label="logo"><g
         id="SVGRepo_bgCarrier"
         stroke-width="0" /><g
         id="SVGRepo_tracerCarrier"
         stroke-linecap="round"
         stroke-linejoin="round" /><g
         id="SVGRepo_iconCarrier"><g
           id="g1"><path
             d="M 216.85634,16.596603 C 200.285,8.8432867 182.56614,3.2084988 164.04156,0 c -2.27504,4.1131811 -4.93294,9.6454991 -6.76546,14.046438 -19.69211,-2.961448 -39.20313,-2.961448 -58.533084,0 C 96.910842,9.6454991 94.192584,4.1131811 91.897189,0 73.352607,3.2084988 55.613395,8.8639912 39.042058,16.637661 5.6175229,67.146514 -3.4433191,116.40081 1.0871107,164.95572 23.25602,181.51091 44.740363,191.5677 65.862133,198.14858 c 5.215082,-7.17745 9.86623,-14.80725 13.873081,-22.84832 -7.631195,-2.89969 -14.940242,-6.47806 -21.846427,-10.6323 1.832174,-1.35737 3.624343,-2.77651 5.355803,-4.2367 42.12282,19.70193 87.89034,19.70193 129.50993,0 1.75182,1.46019 3.54363,2.87933 5.35581,4.2367 -6.92654,4.1746 -14.25559,7.75297 -21.88679,10.653 4.00685,8.02037 8.638,15.67087 13.87308,22.84797 21.14213,-6.58088 42.6464,-16.63731 64.81533,-33.21321 5.3158,-56.28752 -9.08086,-105.089477 -38.05561,-148.359117 z M 85.473875,135.09489 c -12.644847,0 -23.014653,-11.80473 -23.014653,-26.17999 0,-14.375253 10.148373,-26.200341 23.014653,-26.200341 12.866631,0 23.236085,11.804384 23.014655,26.200341 0.02,14.37526 -10.148024,26.17999 -23.014655,26.17999 z m 85.051365,0 c -12.64485,0 -23.01466,-11.80473 -23.01466,-26.17999 0,-14.375253 10.14803,-26.200341 23.01466,-26.200341 12.86628,0 23.23608,11.804384 23.01465,26.200341 0,14.37526 -10.14837,26.17999 -23.01465,26.17999 z"
             fill="#0c0623"
             fill-rule="nonzero"
             id="path1-1" /></g></g></g></g></svg>
